<svg xmlns="http://www.w3.org/2000/svg" width="56" height="88" viewBox="0 0 56 88" fill="none" role="img" aria-labelledby="title desc">
  <title id="title">Gold Laurel</title>
  <desc id="desc">Premium gold laurel branch icon</desc>
  <defs>
    <linearGradient id="stem" x1="16" y1="10" x2="30" y2="78" gradientUnits="userSpaceOnUse">
      <stop stop-color="#FFE782" />
      <stop offset=".55" stop-color="#E6B423" />
      <stop offset="1" stop-color="#AD7707" />
    </linearGradient>
    <linearGradient id="leafLight" x1="14" y1="12" x2="40" y2="58" gradientUnits="userSpaceOnUse">
      <stop stop-color="#FFF3A5" />
      <stop offset=".48" stop-color="#FFD84A" />
      <stop offset="1" stop-color="#E6AB13" />
    </linearGradient>
    <linearGradient id="leafDark" x1="22" y1="18" x2="42" y2="70" gradientUnits="userSpaceOnUse">
      <stop stop-color="#FFD24A" />
      <stop offset="1" stop-color="#BE8207" />
    </linearGradient>
    <filter id="shadow" x="4" y="4" width="48" height="80" filterUnits="userSpaceOnUse" color-interpolation-filters="sRGB">
      <feFlood flood-opacity="0" result="BackgroundImageFix" />
      <feOffset dy="1.2" />
      <feGaussianBlur stdDeviation="1.6" />
      <feColorMatrix type="matrix" values="0 0 0 0 0.65 0 0 0 0 0.47 0 0 0 0 0.04 0 0 0 0.28 0" />
      <feBlend in2="BackgroundImageFix" result="effect1_dropShadow" />
      <feBlend in="SourceGraphic" in2="effect1_dropShadow" result="shape" />
    </filter>
  </defs>

  <g filter="url(#shadow)">
    <path
      d="M17.4 74.8C18.5 67.8 22.1 60.7 25.9 55.7C31.9 47.8 34.4 40.6 34.1 31.5C33.9 24.7 31.7 18.2 27.8 12.4"
      stroke="url(#stem)"
      stroke-width="3.4"
      stroke-linecap="round"
    />
    <path
      d="M17.8 73.6C19.9 72.9 23.5 71.2 25.8 68.4"
      stroke="url(#stem)"
      stroke-width="2.4"
      stroke-linecap="round"
    />

    <g>
      <path d="M26.3 8.8C19.5 11.2 15.3 17.8 16.2 25.1C23.1 23.3 27.9 17.1 26.3 8.8Z" fill="url(#leafLight)" />
      <path d="M26.3 8.8C24.8 15.4 21.8 20.3 16.2 25.1C22.6 23 27 17.4 26.3 8.8Z" fill="url(#leafDark)" opacity=".52" />
    </g>
    <g>
      <path d="M34.2 18.2C26.8 18.8 20.8 23.8 19.1 30.8C26.1 31.5 32.6 27 34.2 18.2Z" fill="url(#leafLight)" />
      <path d="M34.2 18.2C30.6 24 25.7 27.9 19.1 30.8C25.7 31.2 32.1 27.4 34.2 18.2Z" fill="url(#leafDark)" opacity=".5" />
    </g>
    <g>
      <path d="M39.1 31.2C31.8 30.2 24.6 34 20.8 40.3C27.3 42.9 34.8 40 39.1 31.2Z" fill="url(#leafLight)" />
      <path d="M39.1 31.2C33.8 35.5 27.9 38.4 20.8 40.3C26.8 42.5 34.6 40.4 39.1 31.2Z" fill="url(#leafDark)" opacity=".48" />
    </g>
    <g>
      <path d="M39.7 45C32.8 42.3 24.8 44.1 19.2 48.9C24.5 53.8 32.5 54.1 39.7 45Z" fill="url(#leafLight)" />
      <path d="M39.7 45C33.2 47.9 26.7 49.2 19.2 48.9C23.8 53.1 31.7 54.3 39.7 45Z" fill="url(#leafDark)" opacity=".46" />
    </g>
    <g>
      <path d="M36.1 58.7C29.8 54.9 21.7 55.2 15.9 59.7C20.3 65.1 28 66.4 36.1 58.7Z" fill="url(#leafLight)" />
      <path d="M36.1 58.7C29.4 60.6 23.1 61.1 15.9 59.7C19.7 64.4 27.2 66.5 36.1 58.7Z" fill="url(#leafDark)" opacity=".44" />
    </g>

    <path
      d="M17.1 73.8C19.8 74.1 23.3 73.8 26.1 72.3"
      stroke="#FFE784"
      stroke-width="1.2"
      stroke-linecap="round"
      opacity=".72"
    />
  </g>
</svg>
